<svg width="24" height="25" viewBox="0 0 24 25" fill="none" xmlns="http://www.w3.org/2000/svg">
<g id="droop/filled/done_square">
<path id="Union" fill-rule="evenodd" clip-rule="evenodd" d="M5.77778 5C4.79594 5 4 5.83947 4 6.875V18.125C4 19.1605 4.79594 20 5.77778 20H18.2222C19.2041 20 20 19.1605 20 18.125V6.875C20 5.83947 19.2041 5 18.2222 5H5.77778ZM16.1841 10.3504C16.5312 9.9843 16.5312 9.3907 16.1841 9.02459C15.837 8.65847 15.2741 8.65847 14.927 9.02459L10.2222 13.9867L9.07298 12.7746C8.72585 12.4085 8.16304 12.4085 7.81591 12.7746C7.46877 13.1407 7.46877 13.7343 7.81591 14.1004L9.59368 15.9754C9.94082 16.3415 10.5036 16.3415 10.8508 15.9754L16.1841 10.3504Z" fill="#00C250" stroke="#00C250" stroke-width="0.5" stroke-linecap="round" stroke-linejoin="round"/>
</g>
</svg>
