<svg width="24" height="25" viewBox="0 0 24 25" fill="none" xmlns="http://www.w3.org/2000/svg">
<g id="droop/filled/delete">
<path id="Union" fill-rule="evenodd" clip-rule="evenodd" d="M5 8.5C4.44772 8.5 4 8.05228 4 7.5C4 6.94772 4.44772 6.5 5 6.5H8V5.5C8 3.84315 9.34315 2.5 11 2.5H13C14.6569 2.5 16 3.84315 16 5.5V6.5H19C19.5523 6.5 20 6.94772 20 7.5C20 8.05228 19.5523 8.5 19 8.5V20.5C19 21.6046 18.1046 22.5 17 22.5H7C5.89543 22.5 5 21.6046 5 20.5V8.5ZM10 6.5H14V5.5C14 4.94772 13.5523 4.5 13 4.5H11C10.4477 4.5 10 4.94772 10 5.5V6.5ZM10 11.5C10.5523 11.5 11 11.9477 11 12.5V16.5C11 17.0523 10.5523 17.5 10 17.5C9.44772 17.5 9 17.0523 9 16.5V12.5C9 11.9477 9.44772 11.5 10 11.5ZM15 12.5C15 11.9477 14.5523 11.5 14 11.5C13.4477 11.5 13 11.9477 13 12.5V16.5C13 17.0523 13.4477 17.5 14 17.5C14.5523 17.5 15 17.0523 15 16.5V12.5Z" fill="#C8102E"/>
</g>
</svg>
