<svg width="18" height="18" viewBox="0 0 18 18" fill="none" xmlns="http://www.w3.org/2000/svg">
<g id="droop/filled/edit">
<g id="Subtract">
<path d="M15.284 3.65847L14.3061 2.68049C13.4412 1.81559 12.0437 1.80006 11.1598 2.64554L10.0338 3.72259L14.2179 7.90664L15.284 6.84046C16.1627 5.96178 16.1627 4.53715 15.284 3.65847Z" fill="#00C250"/>
<path fill-rule="evenodd" clip-rule="evenodd" d="M4.63712 8.88465L8.94959 4.75968L13.1572 8.9673L8.71988 13.4046C8.4132 13.7113 8.02442 13.9228 7.60033 14.0137L4.11656 14.7602C3.58894 14.8733 3.11816 14.4089 3.22398 13.8798L3.98607 10.0693C4.07653 9.61704 4.3038 9.20347 4.63712 8.88465ZM9.90537 9.1548C10.1983 8.8619 10.1983 8.38703 9.90537 8.09414C9.61248 7.80124 9.1376 7.80124 8.84471 8.09414L6.96971 9.96914C6.67682 10.262 6.67682 10.7369 6.96971 11.0298C7.2626 11.3227 7.73748 11.3227 8.03037 11.0298L9.90537 9.1548Z" fill="#00C250"/>
</g>
</g>
</svg>
