<svg width="20" height="16" viewBox="0 0 20 16" fill="none" xmlns="http://www.w3.org/2000/svg">
<path id="Vector" d="M1.66675 14.6668H3.33341M3.33341 14.6668H7.50008M3.33341 14.6668V4.00033C3.33341 3.0669 3.33341 2.59985 3.51507 2.24333C3.67486 1.92972 3.92964 1.67494 4.24325 1.51515C4.59976 1.3335 5.06682 1.3335 6.00024 1.3335H7.33358C8.267 1.3335 8.73306 1.3335 9.08958 1.51515C9.40318 1.67494 9.65881 1.92972 9.8186 2.24333C10.0001 2.5995 10.0001 3.06599 10.0001 3.99759V6.33366M7.50008 14.6668H16.6667M7.50008 14.6668V9.97363C7.50008 9.53582 7.50008 9.31682 7.55258 9.11263C7.59911 8.93166 7.67569 8.76003 7.77922 8.60448C7.89596 8.42906 8.05935 8.28219 8.38468 7.98991L10.3027 6.26681C10.9316 5.70176 11.2463 5.41903 11.6022 5.31177C11.9159 5.21721 12.2507 5.21721 12.5644 5.31177C12.9205 5.41912 13.2356 5.70199 13.8656 6.26798L15.7823 7.98991C16.108 8.28251 16.2705 8.42896 16.3873 8.60448C16.4908 8.76003 16.5673 8.93166 16.6139 9.11263C16.6664 9.31682 16.6667 9.53582 16.6667 9.97363V14.6668M16.6667 14.6668H18.3334" stroke="#1E1E1E" stroke-width="1.5" stroke-linecap="round" stroke-linejoin="round"/>
</svg>
